<svg height="512pt" viewBox="0 0 512 512" width="512pt" xmlns="http://www.w3.org/2000/svg"><path d="m492 0h-472c-11.046875 0-20 8.953125-20 20v472c0 11.046875 8.953125 20 20 20h472c11.046875 0 20-8.953125 20-20v-472c0-11.046875-8.953125-20-20-20zm-20 472h-432v-432h432zm-390.140625-334.8125c-7.8125-7.808594-7.8125-20.472656 0-28.285156 7.808594-7.808594 20.472656-7.808594 28.28125 0l12.949219 12.949218 42.769531-42.765624c7.808594-7.8125 20.472656-7.8125 28.28125 0 7.8125 7.8125 7.8125 20.472656 0 28.285156l-56.90625 56.90625c-7.8125 7.8125-20.476563 7.808594-28.285156 0zm154.140625-15.503906c0-11.046875 8.953125-20 20-20h160c11.046875 0 20 8.953125 20 20 0 11.042968-8.953125 20-20 20h-160c-11.046875 0-20-8.957032-20-20zm-154.140625 284.140625c-7.8125-7.8125-7.8125-20.476563 0-28.285157 7.808594-7.808593 20.472656-7.8125 28.28125 0l12.949219 12.949219 42.769531-42.765625c7.808594-7.8125 20.472656-7.8125 28.28125 0 7.8125 7.808594 7.8125 20.472656 0 28.285156l-56.90625 56.90625c-7.8125 7.8125-20.476563 7.808594-28.285156 0zm154.140625-15.507813c0-11.042968 8.953125-20 20-20h160c11.046875 0 20 8.957032 20 20 0 11.046875-8.953125 20-20 20h-160c-11.046875 0-20-8.953125-20-20zm-154.140625-118.808594c-7.8125-7.8125-7.8125-20.476562 0-28.285156 7.808594-7.8125 20.472656-7.8125 28.28125 0l12.949219 12.949219 42.769531-42.769531c7.808594-7.808594 20.472656-7.808594 28.28125 0 7.8125 7.8125 7.8125 20.476562 0 28.285156l-56.90625 56.910156c-7.8125 7.808594-20.476563 7.808594-28.285156 0zm154.140625-15.507812c0-11.046875 8.953125-20 20-20h160c11.046875 0 20 8.953125 20 20s-8.953125 20-20 20h-160c-11.046875 0-20-8.953125-20-20zm0 0"/></svg>